#define A_width 7
#define A_height 13
static char A_bits[] = {
  0x00, 0x00, 0x00, 0x04, 0x2F, 0x7E, 0x1F, 0x1F, 0x3F, 0x2F, 0x00, 0x00, 
  0x00, };
