#define default_width 8
#define default_height 14
static char default_bits[] = {
  0x00, 0x00, 0x00, 0x28, 0xCB, 0xFF, 0x1F, 0x7B, 0x3F, 0xFB, 0x00, 0x00, 
  0x00, 0x00, };
